<mxfile host="app.diagrams.net" agent="Mozilla/5.0 (Windows NT 10.0; Win64; x64) AppleWebKit/537.36 (KHTML, like Gecko) Chrome/136.0.0.0 Safari/537.36" version="27.0.9">
  <diagram name="Trang-1" id="MrkthQQXWqlF9t9Q2lhR">
    <mxGraphModel dx="1681" dy="1362" grid="0" gridSize="10" guides="1" tooltips="1" connect="1" arrows="1" fold="1" page="0" pageScale="1" pageWidth="690" pageHeight="980" math="0" shadow="0">
      <root>
        <mxCell id="0" />
        <mxCell id="1" parent="0" />
        <mxCell id="NHqHUIzgKbxhCplANnF4-2" value="Guest" style="shape=umlActor;verticalLabelPosition=bottom;verticalAlign=top;html=1;outlineConnect=0;" parent="1" vertex="1">
          <mxGeometry x="-349" y="-341" width="30" height="60" as="geometry" />
        </mxCell>
        <mxCell id="NHqHUIzgKbxhCplANnF4-3" value="" style="endArrow=classic;html=1;rounded=0;" parent="1" edge="1">
          <mxGeometry width="50" height="50" relative="1" as="geometry">
            <mxPoint x="-304" y="-295" as="sourcePoint" />
            <mxPoint x="-247" y="-295" as="targetPoint" />
          </mxGeometry>
        </mxCell>
        <mxCell id="NHqHUIzgKbxhCplANnF4-32" style="edgeStyle=orthogonalEdgeStyle;rounded=0;orthogonalLoop=1;jettySize=auto;html=1;exitX=0.5;exitY=1;exitDx=0;exitDy=0;" parent="1" source="NHqHUIzgKbxhCplANnF4-4" edge="1">
          <mxGeometry relative="1" as="geometry">
            <mxPoint x="-205.3333740234375" y="-256.83331298828125" as="targetPoint" />
          </mxGeometry>
        </mxCell>
        <mxCell id="NHqHUIzgKbxhCplANnF4-4" value="Trang chủ" style="ellipse;whiteSpace=wrap;html=1;" parent="1" vertex="1">
          <mxGeometry x="-241" y="-320" width="53" height="51" as="geometry" />
        </mxCell>
        <mxCell id="NHqHUIzgKbxhCplANnF4-5" value="" style="endArrow=classic;html=1;rounded=0;exitX=0.748;exitY=0.075;exitDx=0;exitDy=0;exitPerimeter=0;" parent="1" source="NHqHUIzgKbxhCplANnF4-4" target="NHqHUIzgKbxhCplANnF4-6" edge="1">
          <mxGeometry width="50" height="50" relative="1" as="geometry">
            <mxPoint x="-197" y="-320" as="sourcePoint" />
            <mxPoint x="-164" y="-349" as="targetPoint" />
          </mxGeometry>
        </mxCell>
        <mxCell id="NHqHUIzgKbxhCplANnF4-6" value="Giới thiệu về cơ sở:" style="ellipse;whiteSpace=wrap;html=1;" parent="1" vertex="1">
          <mxGeometry x="-132" y="-397" width="98" height="50" as="geometry" />
        </mxCell>
        <mxCell id="NHqHUIzgKbxhCplANnF4-7" value="" style="endArrow=classic;html=1;rounded=0;" parent="1" target="NHqHUIzgKbxhCplANnF4-8" edge="1">
          <mxGeometry width="50" height="50" relative="1" as="geometry">
            <mxPoint x="-67" y="-396" as="sourcePoint" />
            <mxPoint x="-211" y="-188" as="targetPoint" />
          </mxGeometry>
        </mxCell>
        <mxCell id="NHqHUIzgKbxhCplANnF4-8" value="Thông tin liên hệ:&lt;br&gt;địa chỉ, sdt, email, web chính thức." style="ellipse;whiteSpace=wrap;html=1;" parent="1" vertex="1">
          <mxGeometry x="-267" y="-499" width="121" height="65" as="geometry" />
        </mxCell>
        <mxCell id="NHqHUIzgKbxhCplANnF4-9" value="" style="endArrow=classic;html=1;rounded=0;" parent="1" target="NHqHUIzgKbxhCplANnF4-10" edge="1">
          <mxGeometry width="50" height="50" relative="1" as="geometry">
            <mxPoint x="-186" y="-298" as="sourcePoint" />
            <mxPoint x="65" y="-354" as="targetPoint" />
          </mxGeometry>
        </mxCell>
        <mxCell id="NHqHUIzgKbxhCplANnF4-10" value="Blog chia sẻ kinh nghiệm của những cá nhân từng mắc bệnh hoặc từng khám/ chữa trị." style="ellipse;whiteSpace=wrap;html=1;" parent="1" vertex="1">
          <mxGeometry x="-60" y="-365.5" width="205" height="109" as="geometry" />
        </mxCell>
        <mxCell id="NHqHUIzgKbxhCplANnF4-11" value="" style="endArrow=classic;html=1;rounded=0;exitX=1;exitY=1;exitDx=0;exitDy=0;" parent="1" source="NHqHUIzgKbxhCplANnF4-4" target="NHqHUIzgKbxhCplANnF4-12" edge="1">
          <mxGeometry width="50" height="50" relative="1" as="geometry">
            <mxPoint x="-191" y="-275" as="sourcePoint" />
            <mxPoint x="-131" y="-240" as="targetPoint" />
          </mxGeometry>
        </mxCell>
        <mxCell id="NHqHUIzgKbxhCplANnF4-12" value="Đăng nhập" style="ellipse;whiteSpace=wrap;html=1;" parent="1" vertex="1">
          <mxGeometry x="-146" y="-275" width="69" height="41" as="geometry" />
        </mxCell>
        <mxCell id="NHqHUIzgKbxhCplANnF4-15" value="" style="endArrow=classic;html=1;rounded=0;exitX=0.609;exitY=1.045;exitDx=0;exitDy=0;exitPerimeter=0;" parent="1" edge="1">
          <mxGeometry width="50" height="50" relative="1" as="geometry">
            <mxPoint x="-76.99900000000004" y="-248.99499999999998" as="sourcePoint" />
            <mxPoint x="-30" y="-240" as="targetPoint" />
          </mxGeometry>
        </mxCell>
        <mxCell id="NHqHUIzgKbxhCplANnF4-16" value="Menu" style="ellipse;whiteSpace=wrap;html=1;" parent="1" vertex="1">
          <mxGeometry x="-36" y="-252" width="68" height="37" as="geometry" />
        </mxCell>
        <mxCell id="NHqHUIzgKbxhCplANnF4-17" value="" style="endArrow=classic;html=1;rounded=0;" parent="1" edge="1">
          <mxGeometry width="50" height="50" relative="1" as="geometry">
            <mxPoint x="32" y="-228" as="sourcePoint" />
            <mxPoint x="107" y="-232" as="targetPoint" />
          </mxGeometry>
        </mxCell>
        <mxCell id="NHqHUIzgKbxhCplANnF4-19" value="" style="endArrow=classic;html=1;rounded=0;exitX=0.66;exitY=0.039;exitDx=0;exitDy=0;exitPerimeter=0;" parent="1" source="NHqHUIzgKbxhCplANnF4-6" target="NHqHUIzgKbxhCplANnF4-24" edge="1">
          <mxGeometry width="50" height="50" relative="1" as="geometry">
            <mxPoint x="-120" y="-408" as="sourcePoint" />
            <mxPoint x="-86" y="-454" as="targetPoint" />
          </mxGeometry>
        </mxCell>
        <mxCell id="NHqHUIzgKbxhCplANnF4-20" value="" style="endArrow=classic;html=1;rounded=0;exitX=0.66;exitY=0.043;exitDx=0;exitDy=0;exitPerimeter=0;" parent="1" source="NHqHUIzgKbxhCplANnF4-6" edge="1">
          <mxGeometry width="50" height="50" relative="1" as="geometry">
            <mxPoint x="-63" y="-408" as="sourcePoint" />
            <mxPoint x="-19" y="-444" as="targetPoint" />
          </mxGeometry>
        </mxCell>
        <mxCell id="NHqHUIzgKbxhCplANnF4-21" value="" style="endArrow=classic;html=1;rounded=0;exitX=0.656;exitY=0.008;exitDx=0;exitDy=0;exitPerimeter=0;" parent="1" source="NHqHUIzgKbxhCplANnF4-6" edge="1">
          <mxGeometry width="50" height="50" relative="1" as="geometry">
            <mxPoint x="-6" y="-391" as="sourcePoint" />
            <mxPoint x="50" y="-426" as="targetPoint" />
          </mxGeometry>
        </mxCell>
        <mxCell id="NHqHUIzgKbxhCplANnF4-22" value="Tên, địa chỉ cơ sở" style="ellipse;whiteSpace=wrap;html=1;" parent="1" vertex="1">
          <mxGeometry x="51" y="-468" width="77" height="65" as="geometry" />
        </mxCell>
        <mxCell id="NHqHUIzgKbxhCplANnF4-23" value="Tên, địa chỉ cơ sở" style="ellipse;whiteSpace=wrap;html=1;" parent="1" vertex="1">
          <mxGeometry x="-30" y="-493" width="56" height="48" as="geometry" />
        </mxCell>
        <mxCell id="NHqHUIzgKbxhCplANnF4-24" value="Chất lượng, uy tín" style="ellipse;whiteSpace=wrap;html=1;" parent="1" vertex="1">
          <mxGeometry x="-135" y="-493" width="69" height="47" as="geometry" />
        </mxCell>
        <mxCell id="NHqHUIzgKbxhCplANnF4-25" value="" style="endArrow=classic;html=1;rounded=0;exitX=0.5;exitY=0;exitDx=0;exitDy=0;" parent="1" source="NHqHUIzgKbxhCplANnF4-4" edge="1">
          <mxGeometry width="50" height="50" relative="1" as="geometry">
            <mxPoint x="-225" y="-356.6287423663222" as="sourcePoint" />
            <mxPoint x="-217" y="-372" as="targetPoint" />
          </mxGeometry>
        </mxCell>
        <mxCell id="NHqHUIzgKbxhCplANnF4-26" value="Đăng kí" style="ellipse;whiteSpace=wrap;html=1;" parent="1" vertex="1">
          <mxGeometry x="-252.75" y="-414" width="76.5" height="41" as="geometry" />
        </mxCell>
        <mxCell id="NHqHUIzgKbxhCplANnF4-27" value="Lịch sử thăm khám" style="ellipse;whiteSpace=wrap;html=1;" parent="1" vertex="1">
          <mxGeometry x="108" y="-263" width="87" height="59" as="geometry" />
        </mxCell>
        <mxCell id="NHqHUIzgKbxhCplANnF4-28" value="" style="endArrow=classic;html=1;rounded=0;exitX=0.765;exitY=0.968;exitDx=0;exitDy=0;exitPerimeter=0;" parent="1" source="NHqHUIzgKbxhCplANnF4-16" target="NHqHUIzgKbxhCplANnF4-29" edge="1">
          <mxGeometry width="50" height="50" relative="1" as="geometry">
            <mxPoint x="-18" y="-181" as="sourcePoint" />
            <mxPoint x="40" y="-173" as="targetPoint" />
          </mxGeometry>
        </mxCell>
        <mxCell id="NHqHUIzgKbxhCplANnF4-29" value="Thông tin cá nhân" style="ellipse;whiteSpace=wrap;html=1;" parent="1" vertex="1">
          <mxGeometry x="29.5" y="-215" width="86.5" height="49" as="geometry" />
        </mxCell>
        <mxCell id="NHqHUIzgKbxhCplANnF4-30" value="" style="endArrow=classic;html=1;rounded=0;" parent="1" target="NHqHUIzgKbxhCplANnF4-31" edge="1">
          <mxGeometry width="50" height="50" relative="1" as="geometry">
            <mxPoint x="-2" y="-213" as="sourcePoint" />
            <mxPoint x="-9" y="-173" as="targetPoint" />
          </mxGeometry>
        </mxCell>
        <mxCell id="NHqHUIzgKbxhCplANnF4-31" value="Đặt lịch khám" style="ellipse;whiteSpace=wrap;html=1;" parent="1" vertex="1">
          <mxGeometry x="-50" y="-187" width="68" height="45" as="geometry" />
        </mxCell>
        <mxCell id="NHqHUIzgKbxhCplANnF4-33" value="" style="endArrow=classic;html=1;rounded=0;exitX=0.255;exitY=0.95;exitDx=0;exitDy=0;exitPerimeter=0;" parent="1" source="NHqHUIzgKbxhCplANnF4-16" target="NHqHUIzgKbxhCplANnF4-34" edge="1">
          <mxGeometry width="50" height="50" relative="1" as="geometry">
            <mxPoint x="67" y="-270" as="sourcePoint" />
            <mxPoint x="-100" y="-195" as="targetPoint" />
          </mxGeometry>
        </mxCell>
        <mxCell id="NHqHUIzgKbxhCplANnF4-34" value="Lịch tái khám" style="ellipse;whiteSpace=wrap;html=1;" parent="1" vertex="1">
          <mxGeometry x="-136" y="-226" width="76" height="46" as="geometry" />
        </mxCell>
        <mxCell id="NHqHUIzgKbxhCplANnF4-35" value="" style="endArrow=classic;html=1;rounded=0;exitX=1;exitY=0.5;exitDx=0;exitDy=0;" parent="1" source="NHqHUIzgKbxhCplANnF4-6" target="NHqHUIzgKbxhCplANnF4-36" edge="1">
          <mxGeometry width="50" height="50" relative="1" as="geometry">
            <mxPoint x="67" y="-270" as="sourcePoint" />
            <mxPoint x="135" y="-385" as="targetPoint" />
          </mxGeometry>
        </mxCell>
        <mxCell id="NHqHUIzgKbxhCplANnF4-36" value="Tra cứu thông tin đội ngũ y bác sĩ" style="ellipse;whiteSpace=wrap;html=1;" parent="1" vertex="1">
          <mxGeometry x="138" y="-427" width="120" height="80" as="geometry" />
        </mxCell>
      </root>
    </mxGraphModel>
  </diagram>
</mxfile>
